<?xml version="1.0" encoding="UTF-8"?>
<svg width="86px" height="36px" viewBox="0 0 86 36" version="1.1" xmlns="http://www.w3.org/2000/svg" xmlns:xlink="http://www.w3.org/1999/xlink">
    <!-- Generator: Sketch 53.2 (72643) - https://sketchapp.com -->
    <title>body/tract-body-white</title>
    <desc>Created with Sketch.</desc>
    <g id="body/tract-body-white" stroke="none" stroke-width="1" fill="none" fill-rule="evenodd">
        <path d="M26.97,22.8 L27.55,24.8 C26.99,25.06 26.45,25.16 25.91,25.16 C23.63,25.16 22.21,23.94 22.21,21.44 L22.21,17.04 L20.65,17.04 L20.65,14.92 L22.21,14.92 L22.21,12.4 L24.69,10.84 L24.69,14.92 L27.35,14.92 L27.35,17.04 L24.69,17.04 L24.69,21.4 C24.69,22.64 25.17,23.04 26.01,23.04 C26.35,23.04 26.63,22.98 26.97,22.8 Z M32.21,25 L29.73,25 L29.73,14.92 L32.21,14.92 L32.21,16.56 C32.93,15.38 34.05,14.76 35.19,14.76 C35.63,14.76 36.01,14.84 36.41,14.96 L35.95,17.26 C35.65,17.08 35.33,16.98 34.91,16.98 C33.47,16.98 32.21,18.16 32.21,21.42 L32.21,25 Z M39.81,18.04 L37.71,17.56 C38.03,15.9 39.49,14.76 41.55,14.76 C43.95,14.76 45.79,15.76 45.79,18.98 L45.79,25 L43.75,25 L43.49,23.72 C42.79,24.58 41.83,25.16 40.39,25.16 C38.67,25.16 37.33,24.1 37.33,22.1 C37.33,20.1 39.09,18.8 41.63,18.8 L43.31,18.8 L43.31,18.36 C43.31,17.24 42.47,16.88 41.55,16.88 C40.85,16.88 40.13,17.1 39.81,18.04 Z M39.93,22.06 C39.93,22.54 40.27,23.04 40.97,23.04 C42.11,23.04 43.31,22.26 43.31,20.96 L43.31,20.76 L41.65,20.76 C40.59,20.76 39.93,21.16 39.93,22.06 Z M54.99,21.38 L57.21,22.28 C56.45,24.18 54.87,25.16 52.63,25.16 C49.35,25.16 47.71,22.8 47.71,19.96 C47.71,17.12 49.35,14.76 52.63,14.76 C54.87,14.76 56.45,15.74 57.21,17.64 L54.99,18.54 C54.47,17.48 53.75,16.88 52.63,16.88 C51.07,16.88 50.31,18.18 50.31,19.96 C50.31,21.74 51.07,23.04 52.63,23.04 C53.75,23.04 54.47,22.44 54.99,21.38 Z M64.55,22.8 L65.13,24.8 C64.57,25.06 64.03,25.16 63.49,25.16 C61.21,25.16 59.79,23.94 59.79,21.44 L59.79,17.04 L58.23,17.04 L58.23,14.92 L59.79,14.92 L59.79,12.4 L62.27,10.84 L62.27,14.92 L64.93,14.92 L64.93,17.04 L62.27,17.04 L62.27,21.4 C62.27,22.64 62.75,23.04 63.59,23.04 C63.93,23.04 64.21,22.98 64.55,22.8 Z" id="tract" fill="#FFFFFF" fill-rule="nonzero"></path>
    </g>
</svg>