<?xml version="1.0" encoding="UTF-8"?>
<svg width="102px" height="36px" viewBox="0 0 102 36" version="1.1" xmlns="http://www.w3.org/2000/svg" xmlns:xlink="http://www.w3.org/1999/xlink">
    <!-- Generator: Sketch 53.2 (72643) - https://sketchapp.com -->
    <title>@2xbody/tract-body-blue</title>
    <desc>Created with Sketch.</desc>
    <g id="body/tract-body-blue" stroke="none" stroke-width="1" fill="none" fill-rule="evenodd">
        <g id="tract-body-white-blue" transform="translate(9.000000, 3.000000)" fill="#0C2366" fill-rule="nonzero">
            <path d="M13.1,26.1 C13.1,26.1 13.1,26.1 13.1,26.1 C12.9,25.6 12.3,25.3 11.8,25.4 C11.8,25.4 11.7,25.4 11.7,25.4 C11.4,25.5 11.1,25.5 10.7,25.5 C8.8,25.5 7.9,24.4 7.9,22 L7.9,11.8 L12.4,11.8 C13,11.8 13.4,11.4 13.4,10.8 L13.4,8.9 C13.4,8.3 13,7.9 12.4,7.9 L7.9,7.9 L7.9,1.2 C7.9,1 7.8,0.8 7.7,0.7 C7.4,0.2 6.8,0.1 6.3,0.4 L4.4,1.6 C3.8,2 3.5,2.6 3.5,3.3 L3.5,8 L1,8 C0.4,8 0,8.4 0,9 L0,10.9 C0,11.5 0.4,11.9 1,11.9 L3.6,11.9 L3.6,22 C3.6,27.2 6.6,29.6 10.6,29.6 C11.3,29.6 11.9,29.5 12.6,29.4 C12.6,29.4 12.6,29.4 12.7,29.4 C13.5,29.2 13.9,28.4 13.7,27.6 L13.1,26.1 Z" id="Path"></path>
            <path d="M29.6,7.8 C29.6,7.8 29.5,7.8 29.6,7.8 C29,7.7 28.5,7.6 27.8,7.6 C25.5,7.6 23,8.9 21.5,11.5 L21.5,9 C21.5,8.4 21.1,8 20.5,8 L18.1,8 C17.5,8 17.1,8.4 17.1,9 L17.1,28.2 C17.1,28.8 17.5,29.2 18.1,29.2 L20.5,29.2 C21.1,29.2 21.5,28.8 21.5,28.2 L21.5,21.3 C21.5,14.6 24.4,11.5 27.2,11.5 C27.7,11.5 28.2,11.6 28.6,11.7 C28.6,11.7 28.6,11.7 28.7,11.7 C28.7,11.7 28.8,11.7 28.8,11.7 C29.3,11.8 29.9,11.4 30,10.9 L30.4,9 C30.4,8.5 30.1,8 29.6,7.8 Z" id="Path"></path>
            <path d="M39.8,7.6 C36.2,7.6 33.4,9.3 32.2,12.2 C32.2,12.2 32.2,12.3 32.1,12.3 C32.1,12.4 32.1,12.4 32.1,12.5 C32,13 32.3,13.6 32.9,13.7 L35.1,14.2 C35.5,14.3 36,14.1 36.2,13.7 C36.3,13.6 36.3,13.4 36.4,13.4 C37.2,12.2 38.5,11.6 39.9,11.6 C42.1,11.6 44,12.7 44,15.3 L44,16.2 L40.3,16.2 C34.8,16.2 31.1,18.8 31.1,23.1 C31.1,27.5 34.1,29.5 37.7,29.5 C40.7,29.5 42.9,28.3 44.3,26.4 L44.6,28.3 C44.7,28.8 45.1,29.1 45.6,29.1 L47.5,29.1 C48.1,29.1 48.5,28.7 48.5,28.1 L48.5,16 C48.3,9.8 44.7,7.6 39.8,7.6 Z M43.9,20.2 C43.9,23.9 41,25.6 38.3,25.6 C36.4,25.6 35.6,24.5 35.6,23 C35.6,21 37.3,19.7 40,19.7 L43.8,19.7 L43.8,20.2 L43.9,20.2 Z" id="Shape"></path>
            <path d="M84.9,27.4 L84.5,26.1 C84.5,26.1 84.5,26.1 84.5,26.1 C84.3,25.6 83.7,25.3 83.2,25.5 C83.1,25.5 83.1,25.5 83,25.6 C82.7,25.7 82.4,25.7 82.1,25.7 C80.2,25.7 79.3,24.6 79.3,22.2 L79.3,11.8 L83.8,11.8 C84.4,11.8 84.8,11.4 84.8,10.8 L84.8,8.9 C84.8,8.3 84.4,7.9 83.8,7.9 L79.3,7.9 L79.3,1.2 C79.3,1 79.2,0.8 79.1,0.7 C78.8,0.2 78.2,0.1 77.7,0.4 L75.8,1.6 C75.2,2 74.9,2.6 74.9,3.3 L74.9,8 L72.3,8 C71.7,8 71.3,8.4 71.3,9 L71.3,10.9 C71.3,11.5 71.7,11.9 72.3,11.9 L74.9,11.9 L74.9,22 C74.9,27.2 77.9,29.6 81.9,29.6 C82.6,29.6 83.2,29.5 83.9,29.4 C83.9,29.4 84,29.4 84,29.4 C84.7,29 85.2,28.2 84.9,27.4 Z" id="Path"></path>
            <path d="M69.2,23.2 L67.1,22.3 C66.6,22.1 66.1,22.3 65.8,22.7 C65.7,22.9 65.6,23 65.6,23.1 C64.6,24.7 63,25.6 61,25.6 C57.2,25.6 55.6,22.5 55.6,18.5 C55.6,14.5 57.2,11.4 61,11.4 C63.1,11.4 64.6,12.3 65.7,13.9 C65.8,14 65.8,14.1 65.9,14.2 C66.1,14.6 66.7,14.8 67.2,14.6 L69.3,13.7 C69.3,13.7 69.4,13.7 69.4,13.7 C69.9,13.4 70.1,12.8 69.8,12.3 C69.7,12.2 69.7,12.1 69.7,12.1 C67.9,9.1 65.1,7.5 61.1,7.5 C54.3,7.5 51.1,12.6 51.1,18.4 C51.1,24.2 54.4,29.3 61.1,29.3 C65,29.3 67.8,27.8 69.6,24.8 C69.7,24.7 69.7,24.5 69.8,24.4 C69.8,24.4 69.8,24.4 69.8,24.3 C70,24 69.7,23.4 69.2,23.2 Z" id="Path"></path>
        </g>
    </g>
</svg>