<?xml version="1.0" encoding="UTF-8"?>
<svg width="102px" height="36px" viewBox="0 0 102 36" version="1.1" xmlns="http://www.w3.org/2000/svg" xmlns:xlink="http://www.w3.org/1999/xlink">
    <!-- Generator: Sketch 53.2 (72643) - https://sketchapp.com -->
    <title>@2xbody/tract-body-white</title>
    <desc>Created with Sketch.</desc>
    <g id="body/tract-body-white" stroke="none" stroke-width="1" fill="none" fill-rule="evenodd">
        <g id="tract-body-white-blue" transform="translate(9.000000, 3.000000)" fill="#FFFFFF" fill-rule="nonzero">
            <path d="M13.1,26.1 L13.7,27.6 C13.9,28.4 13.5,29.2 12.7,29.4 C12.6,29.4 12.6,29.4 12.6,29.4 C11.9,29.5 11.3,29.6 10.6,29.6 C6.6,29.6 3.6,27.2 3.6,22 L3.6,11.9 L1,11.9 C0.4,11.9 -1.77635684e-15,11.5 -1.77635684e-15,10.9 L-1.77635684e-15,9 C-1.77635684e-15,8.4 0.4,8 1,8 L3.5,8 L3.5,3.3 C3.5,2.6 3.8,2 4.4,1.6 L6.3,0.4 C6.8,0.1 7.4,0.2 7.7,0.7 C7.8,0.8 7.9,1 7.9,1.2 L7.9,7.9 L12.4,7.9 C13,7.9 13.4,8.3 13.4,8.9 L13.4,10.8 C13.4,11.4 13,11.8 12.4,11.8 L7.9,11.8 L7.9,22 C7.9,24.4 8.8,25.5 10.7,25.5 C11.1,25.5 11.4,25.5 11.7,25.4 C11.7,25.4 11.8,25.4 11.8,25.4 C12.3,25.3 12.9,25.6 13.1,26.1 Z M29.6,7.8 C30.1,8 30.4,8.5 30.4,9 L30,10.9 C29.9,11.4 29.3,11.8 28.8,11.7 C28.8,11.7 28.7,11.7 28.7,11.7 C28.6,11.7 28.6,11.7 28.6,11.7 C28.2,11.6 27.7,11.5 27.2,11.5 C24.4,11.5 21.5,14.6 21.5,21.3 L21.5,28.2 C21.5,28.8 21.1,29.2 20.5,29.2 L18.1,29.2 C17.5,29.2 17.1,28.8 17.1,28.2 L17.1,9 C17.1,8.4 17.5,8 18.1,8 L20.5,8 C21.1,8 21.5,8.4 21.5,9 L21.5,11.5 C23,8.9 25.5,7.6 27.8,7.6 C28.5,7.6 29,7.7 29.6,7.8 C29.5,7.8 29.6,7.8 29.6,7.8 Z M39.8,7.6 C44.7,7.6 48.3,9.8 48.5,16 L48.5,28.1 C48.5,28.7 48.1,29.1 47.5,29.1 L45.6,29.1 C45.1,29.1 44.7,28.8 44.6,28.3 L44.3,26.4 C42.9,28.3 40.7,29.5 37.7,29.5 C34.1,29.5 31.1,27.5 31.1,23.1 C31.1,18.8 34.8,16.2 40.3,16.2 L44,16.2 L44,15.3 C44,12.7 42.1,11.6 39.9,11.6 C38.5,11.6 37.2,12.2 36.4,13.4 C36.3,13.4 36.3,13.6 36.2,13.7 C36,14.1 35.5,14.3 35.1,14.2 L32.9,13.7 C32.3,13.6 32,13 32.1,12.5 C32.1,12.4 32.1,12.4 32.1,12.3 C32.2,12.3 32.2,12.2 32.2,12.2 C33.4,9.3 36.2,7.6 39.8,7.6 Z M43.9,20.2 L43.8,20.2 L43.8,19.7 L40,19.7 C37.3,19.7 35.6,21 35.6,23 C35.6,24.5 36.4,25.6 38.3,25.6 C41,25.6 43.9,23.9 43.9,20.2 Z M84.9,27.4 C85.2,28.2 84.7,29 84,29.4 C84,29.4 83.9,29.4 83.9,29.4 C83.2,29.5 82.6,29.6 81.9,29.6 C77.9,29.6 74.9,27.2 74.9,22 L74.9,11.9 L72.3,11.9 C71.7,11.9 71.3,11.5 71.3,10.9 L71.3,9 C71.3,8.4 71.7,8 72.3,8 L74.9,8 L74.9,3.3 C74.9,2.6 75.2,2 75.8,1.6 L77.7,0.4 C78.2,0.1 78.8,0.2 79.1,0.7 C79.2,0.8 79.3,1 79.3,1.2 L79.3,7.9 L83.8,7.9 C84.4,7.9 84.8,8.3 84.8,8.9 L84.8,10.8 C84.8,11.4 84.4,11.8 83.8,11.8 L79.3,11.8 L79.3,22.2 C79.3,24.6 80.2,25.7 82.1,25.7 C82.4,25.7 82.7,25.7 83,25.6 C83.1,25.5 83.1,25.5 83.2,25.5 C83.7,25.3 84.3,25.6 84.5,26.1 L84.9,27.4 Z M69.2,23.2 C69.7,23.4 70,24 69.8,24.3 C69.8,24.4 69.8,24.4 69.8,24.4 C69.7,24.5 69.7,24.7 69.6,24.8 C67.8,27.8 65,29.3 61.1,29.3 C54.4,29.3 51.1,24.2 51.1,18.4 C51.1,12.6 54.3,7.5 61.1,7.5 C65.1,7.5 67.9,9.1 69.7,12.1 C69.7,12.1 69.7,12.2 69.8,12.3 C70.1,12.8 69.9,13.4 69.4,13.7 C69.4,13.7 69.3,13.7 69.3,13.7 L67.2,14.6 C66.7,14.8 66.1,14.6 65.9,14.2 C65.8,14.1 65.8,14 65.7,13.9 C64.6,12.3 63.1,11.4 61,11.4 C57.2,11.4 55.6,14.5 55.6,18.5 C55.6,22.5 57.2,25.6 61,25.6 C63,25.6 64.6,24.7 65.6,23.1 C65.6,23 65.7,22.9 65.8,22.7 C66.1,22.3 66.6,22.1 67.1,22.3 L69.2,23.2 Z" id="Combined-Shape"></path>
        </g>
    </g>
</svg>