<?xml version="1.0" encoding="UTF-8"?>
<svg width="46px" height="60px" viewBox="0 0 46 60" version="1.1" xmlns="http://www.w3.org/2000/svg" xmlns:xlink="http://www.w3.org/1999/xlink">
    <!-- Generator: Sketch 53.2 (72643) - https://sketchapp.com -->
    <title>@2xlogo/tract-vertical-black</title>
    <desc>Created with Sketch.</desc>
    <g id="logo/tract-vertical-black" stroke="none" stroke-width="1" fill="none" fill-rule="evenodd">
        <g id="body/tract-body-black" transform="translate(0.000000, 44.000000)" fill="#1A1919">
            <g id="tract-body-white-blue" transform="translate(4.058824, 1.333333)">
                <path d="M5.90784314,11.6 L6.17843137,12.2666667 C6.26862745,12.6222222 6.08823529,12.9777778 5.72745098,13.0666667 C5.68235294,13.0666667 5.68235294,13.0666667 5.68235294,13.0666667 C5.36666667,13.1111111 5.09607843,13.1555556 4.78039216,13.1555556 C2.97647059,13.1555556 1.62352941,12.0888889 1.62352941,9.77777778 L1.62352941,5.28888889 L0.450980392,5.28888889 C0.180392157,5.28888889 -8.8817842e-16,5.11111111 -8.8817842e-16,4.84444444 L-8.8817842e-16,4 C-8.8817842e-16,3.73333333 0.180392157,3.55555556 0.450980392,3.55555556 L1.57843137,3.55555556 L1.57843137,1.46666667 C1.57843137,1.15555556 1.71372549,0.888888889 1.98431373,0.711111111 L2.84117647,0.177777778 C3.06666667,0.0444444444 3.3372549,0.0888888889 3.47254902,0.311111111 C3.51764706,0.355555556 3.5627451,0.444444444 3.5627451,0.533333333 L3.5627451,3.51111111 L5.59215686,3.51111111 C5.8627451,3.51111111 6.04313725,3.68888889 6.04313725,3.95555556 L6.04313725,4.8 C6.04313725,5.06666667 5.8627451,5.24444444 5.59215686,5.24444444 L3.5627451,5.24444444 L3.5627451,9.77777778 C3.5627451,10.8444444 3.96862745,11.3333333 4.8254902,11.3333333 C5.00588235,11.3333333 5.14117647,11.3333333 5.27647059,11.2888889 C5.27647059,11.2888889 5.32156863,11.2888889 5.32156863,11.2888889 C5.54705882,11.2444444 5.81764706,11.3777778 5.90784314,11.6 Z M13.3490196,3.46666667 C13.5745098,3.55555556 13.7098039,3.77777778 13.7098039,4 L13.5294118,4.84444444 C13.4843137,5.06666667 13.2137255,5.24444444 12.9882353,5.2 C12.9882353,5.2 12.9431373,5.2 12.9431373,5.2 C12.8980392,5.2 12.8980392,5.2 12.8980392,5.2 C12.7176471,5.15555556 12.4921569,5.11111111 12.2666667,5.11111111 C11.0039216,5.11111111 9.69607843,6.48888889 9.69607843,9.46666667 L9.69607843,12.5333333 C9.69607843,12.8 9.51568627,12.9777778 9.24509804,12.9777778 L8.1627451,12.9777778 C7.89215686,12.9777778 7.71176471,12.8 7.71176471,12.5333333 L7.71176471,4 C7.71176471,3.73333333 7.89215686,3.55555556 8.1627451,3.55555556 L9.24509804,3.55555556 C9.51568627,3.55555556 9.69607843,3.73333333 9.69607843,4 L9.69607843,5.11111111 C10.372549,3.95555556 11.5,3.37777778 12.5372549,3.37777778 C12.8529412,3.37777778 13.0784314,3.42222222 13.3490196,3.46666667 C13.3039216,3.46666667 13.3490196,3.46666667 13.3490196,3.46666667 Z M17.9490196,3.37777778 C20.1588235,3.37777778 21.7823529,4.35555556 21.872549,7.11111111 L21.872549,12.4888889 C21.872549,12.7555556 21.6921569,12.9333333 21.4215686,12.9333333 L20.5647059,12.9333333 C20.3392157,12.9333333 20.1588235,12.8 20.1137255,12.5777778 L19.9784314,11.7333333 C19.3470588,12.5777778 18.354902,13.1111111 17.0019608,13.1111111 C15.3784314,13.1111111 14.0254902,12.2222222 14.0254902,10.2666667 C14.0254902,8.35555556 15.6941176,7.2 18.1745098,7.2 L19.8431373,7.2 L19.8431373,6.8 C19.8431373,5.64444444 18.9862745,5.15555556 17.9941176,5.15555556 C17.3627451,5.15555556 16.7764706,5.42222222 16.4156863,5.95555556 C16.3705882,5.95555556 16.3705882,6.04444444 16.3254902,6.08888889 C16.2352941,6.26666667 16.0098039,6.35555556 15.8294118,6.31111111 L14.8372549,6.08888889 C14.5666667,6.04444444 14.4313725,5.77777778 14.4764706,5.55555556 C14.4764706,5.51111111 14.4764706,5.51111111 14.4764706,5.46666667 C14.5215686,5.46666667 14.5215686,5.42222222 14.5215686,5.42222222 C15.0627451,4.13333333 16.3254902,3.37777778 17.9490196,3.37777778 Z M19.7980392,8.97777778 L19.7529412,8.97777778 L19.7529412,8.75555556 L18.0392157,8.75555556 C16.8215686,8.75555556 16.054902,9.33333333 16.054902,10.2222222 C16.054902,10.8888889 16.4156863,11.3777778 17.272549,11.3777778 C18.4901961,11.3777778 19.7980392,10.6222222 19.7980392,8.97777778 Z M38.2882353,12.1777778 C38.4235294,12.5333333 38.1980392,12.8888889 37.8823529,13.0666667 C37.8823529,13.0666667 37.8372549,13.0666667 37.8372549,13.0666667 C37.5215686,13.1111111 37.2509804,13.1555556 36.9352941,13.1555556 C35.1313725,13.1555556 33.7784314,12.0888889 33.7784314,9.77777778 L33.7784314,5.28888889 L32.6058824,5.28888889 C32.3352941,5.28888889 32.154902,5.11111111 32.154902,4.84444444 L32.154902,4 C32.154902,3.73333333 32.3352941,3.55555556 32.6058824,3.55555556 L33.7784314,3.55555556 L33.7784314,1.46666667 C33.7784314,1.15555556 33.9137255,0.888888889 34.1843137,0.711111111 L35.0411765,0.177777778 C35.2666667,0.0444444444 35.5372549,0.0888888889 35.672549,0.311111111 C35.7176471,0.355555556 35.7627451,0.444444444 35.7627451,0.533333333 L35.7627451,3.51111111 L37.7921569,3.51111111 C38.0627451,3.51111111 38.2431373,3.68888889 38.2431373,3.95555556 L38.2431373,4.8 C38.2431373,5.06666667 38.0627451,5.24444444 37.7921569,5.24444444 L35.7627451,5.24444444 L35.7627451,9.86666667 C35.7627451,10.9333333 36.1686275,11.4222222 37.0254902,11.4222222 C37.1607843,11.4222222 37.2960784,11.4222222 37.4313725,11.3777778 C37.4764706,11.3333333 37.4764706,11.3333333 37.5215686,11.3333333 C37.7470588,11.2444444 38.0176471,11.3777778 38.1078431,11.6 L38.2882353,12.1777778 Z M31.2078431,10.3111111 C31.4333333,10.4 31.5686275,10.6666667 31.4784314,10.8 C31.4784314,10.8444444 31.4784314,10.8444444 31.4784314,10.8444444 C31.4333333,10.8888889 31.4333333,10.9777778 31.3882353,11.0222222 C30.5764706,12.3555556 29.3137255,13.0222222 27.554902,13.0222222 C24.5333333,13.0222222 23.045098,10.7555556 23.045098,8.17777778 C23.045098,5.6 24.4882353,3.33333333 27.554902,3.33333333 C29.3588235,3.33333333 30.6215686,4.04444444 31.4333333,5.37777778 C31.4333333,5.37777778 31.4333333,5.42222222 31.4784314,5.46666667 C31.6137255,5.68888889 31.5235294,5.95555556 31.2980392,6.08888889 C31.2980392,6.08888889 31.2529412,6.08888889 31.2529412,6.08888889 L30.3058824,6.48888889 C30.0803922,6.57777778 29.8098039,6.48888889 29.7196078,6.31111111 C29.6745098,6.26666667 29.6745098,6.22222222 29.6294118,6.17777778 C29.1333333,5.46666667 28.4568627,5.06666667 27.5098039,5.06666667 C25.7960784,5.06666667 25.0745098,6.44444444 25.0745098,8.22222222 C25.0745098,10 25.7960784,11.3777778 27.5098039,11.3777778 C28.4117647,11.3777778 29.1333333,10.9777778 29.5843137,10.2666667 C29.5843137,10.2222222 29.6294118,10.1777778 29.6745098,10.0888889 C29.8098039,9.91111111 30.0352941,9.82222222 30.2607843,9.91111111 L31.2078431,10.3111111 Z" id="Combined-Shape" fill-rule="nonzero"></path>
            </g>
        </g>
        <g id="icon/tract-icon-black" transform="translate(3.000000, 0.000000)">
            <g id="Group-14" transform="translate(-0.634921, 0.000000)">
                <g id="Group-12">
                    <g id="Group-10" transform="translate(0.317460, 0.000000)" fill="#1A1919" fill-rule="nonzero">
                        <path d="M26.397137,11.0603738 C26.1875175,11.1878547 25.9579794,11.2858379 25.7142857,11.3485603 L25.7142857,17.8577889 C26.0985543,17.9566928 26.4476257,18.1432711 26.7389043,18.3949283 L28.8130895,16.3207431 C28.658095,15.9923282 28.5714286,15.6253327 28.5714286,15.2380952 C28.5714286,14.6089019 28.8002331,14.0331487 29.1791768,13.589501 L26.397137,11.0603738 Z M27.284026,10.1504959 L30.2510106,12.8477545 C30.5196139,12.75109 30.8092108,12.6984127 31.1111111,12.6984127 C31.7228179,12.6984127 32.2840137,12.9146761 32.7224114,13.2749158 L34.884603,9.67334669 C35.2364686,9.08304557 35.1460746,8.33980602 34.6656276,7.85935871 L32.4573659,5.6543843 C31.976128,5.17084336 31.2315342,5.07902564 30.6454799,5.43204064 L27.2031282,7.4956655 C27.4660729,7.89567438 27.6190476,8.37441706 27.6190476,8.88888889 C27.6190476,9.3480808 27.497181,9.77880922 27.284026,10.1504959 Z M24.3312679,6.46118038 L23.3161313,2.39440251 C23.1499307,1.73190835 22.5577605,1.26984127 21.8731127,1.26984127 L18.7618079,1.26984127 C18.0771607,1.26984127 17.4849898,1.73190867 17.3189712,2.39367566 L16.276377,6.57045071 C16.9734876,6.88312189 17.5039578,7.50096806 17.6977667,8.25396825 L22.6196936,8.25396825 C22.8395934,7.39959765 23.4929,6.7192199 24.3312679,6.46118038 Z M22.6196936,9.52380952 L17.6977667,9.52380952 C17.627434,9.79707114 17.5127649,10.0525337 17.361885,10.2820718 L19.7201386,12.9083087 L23.0475001,10.4127876 C22.8508973,10.1510686 22.7036828,9.8501301 22.6196936,9.52380952 Z M24.0811237,11.2248715 L20.5718614,13.8568182 L24.2249845,17.9250689 C24.2967038,17.8994538 24.369912,17.8769722 24.4444444,17.8577889 L24.4444444,11.3485603 C24.3193475,11.3163626 24.1979807,11.2748731 24.0811237,11.2248715 Z M23.1664521,18.646852 L19.5520255,14.6216951 L17.7252859,15.9917499 C17.759698,16.1584244 17.7777778,16.3310691 17.7777778,16.5079365 C17.7777778,16.6059464 17.7722259,16.7026596 17.7614196,16.7977788 L23.1382537,18.6796707 C23.1475614,18.6686504 23.1569613,18.6577104 23.1664521,18.646852 Z M22.5860716,19.8317797 L17.3053652,17.9835324 C16.963203,18.4620367 16.4590391,18.816776 15.8730159,18.9676079 L15.8730159,21.0323921 C16.3583654,21.1573124 16.7875651,21.4220988 17.1150869,21.7812229 L22.553513,20.0508146 C22.5612342,19.9768115 22.5721334,19.9037536 22.5860716,19.8317797 Z M22.74613,21.3220984 L17.713841,22.9232813 C17.7556784,23.1061395 17.7777778,23.2965207 17.7777778,23.4920635 C17.7777778,23.8115238 17.7187943,24.1172077 17.6111238,24.398819 L19.5520255,25.8544953 L23.0976594,21.9059485 C22.955786,21.7291833 22.8370747,21.5330319 22.74613,21.3220984 Z M24.1189102,22.6692498 L20.5718614,26.6193723 L23.7091945,28.9723721 C23.9327505,28.8288551 24.1802807,28.7194307 24.4444444,28.6514397 L24.4444444,22.7771318 C24.3327758,22.7483902 24.2240796,22.7122447 24.1189102,22.6692498 Z M22.8416353,29.9090043 L19.7201386,27.5678817 L17.5272783,30.0099308 C17.6440673,30.252274 17.7235068,30.5160033 17.758129,30.7936508 L22.5593314,30.7936508 C22.5988211,30.4769679 22.6966162,30.178392 22.8416353,29.9090043 Z M22.7242911,32.0634921 L17.5931692,32.0634921 C17.3471652,32.6712249 16.8727505,33.1620612 16.2763768,33.4295494 L17.3187893,37.6055975 C17.4849898,38.2680913 18.0771607,38.7301587 18.7618079,38.7301587 L21.8731127,38.7301587 C22.5577605,38.7301587 23.1499307,38.2680917 23.3159494,37.6063243 L24.331268,33.5388197 C23.5996754,33.3136443 23.0090067,32.7668588 22.7242911,32.0634921 Z M27.2045306,32.5021987 L30.6450564,34.5677058 C31.2322494,34.9190966 31.9773975,34.8278814 32.4587712,34.3442089 L34.6652926,32.140976 C35.1470399,31.6592287 35.2382862,30.9138274 34.8856274,30.3283659 L32.9662786,27.1312955 C32.5028075,27.6268115 31.8431261,27.9365079 31.1111111,27.9365079 C30.7922382,27.9365079 30.487091,27.8777412 30.2059091,27.7704473 L27.4715704,30.2562098 C27.5670476,30.5233496 27.6190476,30.8111577 27.6190476,31.1111111 C27.6190476,31.6246676 27.4666168,32.102622 27.2045306,32.5021987 Z M26.7487775,29.1971536 L29.1516895,27.0126881 C28.7891965,26.5736247 28.5714286,26.0106563 28.5714286,25.3968254 C28.5714286,25.0024369 28.6613255,24.629045 28.821746,24.2960229 L26.8657433,22.1226865 C26.5513379,22.4338295 26.1560732,22.6634235 25.7142857,22.7771318 L25.7142857,28.6514397 C26.1029058,28.7514636 26.4555271,28.9411588 26.7487775,29.1971536 Z M27.5349538,20.9680352 L29.6506541,23.3188133 C29.897156,23.1452493 30.1759281,23.0144361 30.4761905,22.937154 L30.4761905,17.6977667 C30.1670943,17.6182108 29.8807715,17.4819279 29.6289817,17.3006777 L27.4703916,19.4592678 C27.5666195,19.7273344 27.6190476,20.0162747 27.6190476,20.3174603 C27.6190476,20.5423425 27.5898191,20.760398 27.5349538,20.9680352 Z M16.4222053,11.1362136 C16.2499154,11.2271807 16.0658997,11.2989155 15.8730159,11.3485603 L15.8730159,14.0482651 C16.3757366,14.1776564 16.8182163,14.457105 17.1498612,14.8360168 L18.7003027,13.6731857 L16.4222053,11.1362136 Z M13.208587,7.36185782 L9.98828903,5.43134854 C9.40338643,5.07902564 8.65879263,5.17084336 8.17648429,5.65545728 L5.97291732,7.85902425 C5.49102171,8.34091927 5.39925877,9.08439906 5.74929319,9.67163413 L7.81526164,13.1129296 C8.21483836,12.8508435 8.69279272,12.6984127 9.20634921,12.6984127 C9.50824951,12.6984127 9.79784637,12.75109 10.0664498,12.8477545 L13.0334343,10.1504959 C12.8202793,9.77880922 12.6984127,9.3480808 12.6984127,8.88888889 C12.6984127,8.31570522 12.8882948,7.78687089 13.208587,7.36185782 Z M13.9203233,11.0603738 L11.1382835,13.589501 C11.5172272,14.0331487 11.7460317,14.6089019 11.7460317,15.2380952 C11.7460317,15.3320744 11.7409272,15.4248613 11.7309802,15.5161939 L12.780253,15.8659515 C13.0118355,14.9768603 13.7130817,14.2773592 14.6031746,14.0482651 L14.6031746,11.3485603 C14.3594809,11.2858379 14.1299428,11.1878547 13.9203233,11.0603738 Z M12.7966853,17.2099592 L11.2801888,16.7044603 C10.9379268,17.1876324 10.4310552,17.5459664 9.84126984,17.6977667 L9.84126984,22.937154 C10.5336491,23.1153601 11.1117598,23.5782031 11.4434268,24.193508 L12.7134643,23.7701621 C12.7035173,23.6788296 12.6984127,23.5860427 12.6984127,23.4920635 C12.6984127,22.3086734 13.5077922,21.314324 14.6031746,21.0323921 L14.6031746,18.9676079 C13.7332149,18.7436958 13.0436555,18.0704165 12.7966853,17.2099592 Z M13.1642556,24.9584286 L11.7458033,25.431246 C11.739875,25.8775388 11.6188308,26.2960474 11.4110102,26.6584324 L13.9203233,28.9396262 C14.1299428,28.8121453 14.3594809,28.7141621 14.6031746,28.6514397 L14.6031746,25.9517349 C14.0133893,25.7999347 13.5065177,25.4416007 13.1642556,24.9584286 Z M13.0334343,29.8495041 L10.5241211,27.5683103 C10.1399432,27.8019496 9.68886011,27.9365079 9.20634921,27.9365079 C8.5747616,27.9365079 7.99702164,27.7059588 7.55269602,27.3244272 L5.74975456,30.3275961 C5.39851227,30.9145408 5.48915589,31.6605039 5.96929316,32.1406414 L8.17755444,34.3456163 C8.65879249,34.8291567 9.40338649,34.9209743 9.98909445,34.5681671 L13.207143,32.6362241 C12.8877241,32.2115385 12.6984127,31.6834329 12.6984127,31.1111111 C12.6984127,30.6519192 12.8202793,30.2211908 13.0334343,29.8495041 Z M16.6980725,29.0327613 L18.7003027,26.8030048 L16.8749335,25.4339779 C16.5882879,25.6758389 16.2473525,25.8553873 15.8730159,25.9517349 L15.8730159,28.6514397 C16.1730834,28.7286717 16.4516886,28.8593653 16.6980725,29.0327613 Z M33.5603282,15.9123177 C33.3203481,16.7860552 32.6253388,17.4714487 31.7460317,17.6977667 L31.7460317,22.937154 C32.4208726,23.110846 32.9871605,23.5549374 33.3225124,24.1470452 L33.6284736,24.0706721 L37.9230578,22.998671 C38.585552,22.8324704 39.047619,22.2403002 39.047619,21.5556524 L39.047619,18.4443476 C39.047619,17.7597003 38.5855516,17.1675295 37.9237846,17.0015109 L33.5603282,15.9123177 Z M6.77864068,15.9861924 L2.70984175,17.0018325 C2.05001992,17.1650638 1.58730159,17.7587404 1.58730159,18.4443476 L1.58730159,21.5556524 C1.58730159,22.2403002 2.04936866,22.8324704 2.71124691,22.9985168 L7.03510767,24.0786533 C7.37450304,23.5208102 7.92282825,23.1040921 8.57142857,22.937154 L8.57142857,17.6977667 C7.71705795,17.4778669 7.03668019,16.8245603 6.77864068,15.9861924 Z M8.13868553,26.0845606 C8.36475908,26.4348016 8.75847665,26.6666667 9.20634921,26.6666667 C9.90766317,26.6666667 10.4761905,26.0981394 10.4761905,25.3968254 C10.4761905,24.6955114 9.90766317,24.1269841 9.20634921,24.1269841 C8.50503524,24.1269841 7.93650794,24.6955114 7.93650794,25.3968254 C7.93650794,25.545406 7.96202618,25.6880265 8.00891906,25.8205434 C8.02475154,25.8533128 8.04071857,25.8860144 8.05681832,25.9186432 L8.13868553,26.0845606 Z M23.9685093,20.9331595 C24.1852047,21.3232908 24.6014534,21.5873016 25.0793651,21.5873016 C25.780679,21.5873016 26.3492063,21.0187743 26.3492063,20.3174603 C26.3492063,19.6161463 25.780679,19.047619 25.0793651,19.047619 C24.3780511,19.047619 23.8095238,19.6161463 23.8095238,20.3174603 L24.0020341,20.9224926 L23.9685093,20.9331595 Z M9.20634921,16.5079365 C9.90766317,16.5079365 10.4761905,15.9394092 10.4761905,15.2380952 C10.4761905,14.5367813 9.90766317,13.968254 9.20634921,13.968254 C8.50503524,13.968254 7.93650794,14.5367813 7.93650794,15.2380952 C7.93650794,15.9394092 8.50503524,16.5079365 9.20634921,16.5079365 Z M31.1111111,16.5079365 C31.8124251,16.5079365 32.3809524,15.9394092 32.3809524,15.2380952 C32.3809524,14.5367813 31.8124251,13.968254 31.1111111,13.968254 C30.4097971,13.968254 29.8412698,14.5367813 29.8412698,15.2380952 C29.8412698,15.9394092 30.4097971,16.5079365 31.1111111,16.5079365 Z M31.1111111,26.6666667 C31.8124251,26.6666667 32.3809524,26.0981394 32.3809524,25.3968254 C32.3809524,24.6955114 31.8124251,24.1269841 31.1111111,24.1269841 C30.4097971,24.1269841 29.8412698,24.6955114 29.8412698,25.3968254 C29.8412698,26.0981394 30.4097971,26.6666667 31.1111111,26.6666667 Z M15.2380952,24.7619048 C15.9394092,24.7619048 16.5079365,24.1933775 16.5079365,23.4920635 C16.5079365,22.7907495 15.9394092,22.2222222 15.2380952,22.2222222 C14.5367813,22.2222222 13.968254,22.7907495 13.968254,23.4920635 C13.968254,24.1933775 14.5367813,24.7619048 15.2380952,24.7619048 Z M15.2380952,32.3809524 C15.9394092,32.3809524 16.5079365,31.8124251 16.5079365,31.1111111 C16.5079365,30.4097971 15.9394092,29.8412698 15.2380952,29.8412698 C14.5367813,29.8412698 13.968254,30.4097971 13.968254,31.1111111 C13.968254,31.8124251 14.5367813,32.3809524 15.2380952,32.3809524 Z M15.2380952,10.1587302 C15.9394092,10.1587302 16.5079365,9.59020286 16.5079365,8.88888889 C16.5079365,8.18757492 15.9394092,7.61904762 15.2380952,7.61904762 C14.5367813,7.61904762 13.968254,8.18757492 13.968254,8.88888889 C13.968254,9.59020286 14.5367813,10.1587302 15.2380952,10.1587302 Z M15.2380952,17.7777778 C15.9394092,17.7777778 16.5079365,17.2092505 16.5079365,16.5079365 C16.5079365,15.8066225 15.9394092,15.2380952 15.2380952,15.2380952 C14.5367813,15.2380952 13.968254,15.8066225 13.968254,16.5079365 C13.968254,17.2092505 14.5367813,17.7777778 15.2380952,17.7777778 Z M25.0793651,32.3809524 C25.780679,32.3809524 26.3492063,31.8124251 26.3492063,31.1111111 C26.3492063,30.4097971 25.780679,29.8412698 25.0793651,29.8412698 C24.3780511,29.8412698 23.8095238,30.4097971 23.8095238,31.1111111 C23.8095238,31.8124251 24.3780511,32.3809524 25.0793651,32.3809524 Z M25.0793651,10.1587302 C25.780679,10.1587302 26.3492063,9.59020286 26.3492063,8.88888889 C26.3492063,8.18757492 25.780679,7.61904762 25.0793651,7.61904762 C24.3780511,7.61904762 23.8095238,8.18757492 23.8095238,8.88888889 C23.8095238,9.59020286 24.3780511,10.1587302 25.0793651,10.1587302 Z M16.0871152,2.08541116 C16.3949934,0.858174122 17.494802,0 18.7618079,0 L21.8731127,0 C23.1401193,0 24.2399272,0.858173868 24.5479873,2.08613801 L25.5385818,6.05459524 C25.857617,6.17525183 26.172762,6.30655044 26.4813974,6.44779186 L29.9914158,4.3436036 C31.0770664,3.68964926 32.4637213,3.86064113 33.3560147,4.75720918 L35.5632059,6.9611106 C36.4561238,7.85402849 36.6241024,9.23518488 35.9743411,10.3252391 L33.8673974,13.8347873 C34.0093308,14.1421593 34.1411904,14.457436 34.2628363,14.7788711 L38.2320492,15.7696549 C39.4592862,16.0775331 40.3174603,17.1773416 40.3174603,18.4443476 L40.3174603,21.5556524 C40.3174603,22.8226589 39.4592864,23.9224669 38.2313223,24.230527 L34.2628364,25.2211289 C34.1411908,25.5425635 34.0093311,25.8578402 33.8673974,26.1652128 L35.9738567,29.6739554 C36.6271621,30.7585288 36.4574893,32.1446061 35.5628711,33.039224 L33.3574199,35.2413842 C32.4650919,36.1379814 31.0795814,36.3075849 29.9922212,35.6568807 L26.4826731,33.5499371 C26.1753005,33.6918708 25.8600238,33.8237305 25.5385892,33.9453761 L24.5478054,37.9145888 C24.2399272,39.1418261 23.1401193,40 21.8731127,40 L18.7618079,40 C17.494802,40 16.3949934,39.1418259 16.0869333,37.913862 L15.0963734,33.9455441 C14.7831483,33.8267107 14.468397,33.6943828 14.1533025,33.5493037 L10.6435049,35.6563964 C9.55785447,36.3103506 8.17119978,36.139359 7.27890581,35.2427916 L5.07171469,33.0388894 C4.17880932,32.145984 4.01052183,30.7610409 4.66057957,29.6747609 L6.76733233,26.1655307 C6.6230185,25.8543578 6.48990353,25.5384786 6.36916646,25.221159 L2.40287147,24.2303451 C1.17563419,23.9224669 0.317460317,22.8226589 0.317460317,21.5556524 L0.317460317,18.4443476 C0.317460317,17.1759723 1.17724171,16.0728561 2.40359833,15.769473 L6.37155525,14.7790034 C6.49228171,14.4592977 6.6242361,14.1442586 6.76744217,13.8346523 L4.6595551,10.3235266 C4.01115212,9.23574498 4.18163266,7.85448107 5.07500422,6.9611106 L7.2775005,4.75861688 C8.17119936,3.86064113 9.55785419,3.68964926 10.6423531,4.3429115 L14.1535234,6.44779183 C14.4621582,6.30655076 14.7773032,6.17525219 15.0963388,6.05459536 L16.0871152,2.08541116 Z" id="Combined-Shape"></path>
                    </g>
                    <g id="Group-10" transform="translate(28.571429, 12.698413)"></g>
                    <g id="Group-10" transform="translate(12.698413, 6.349206)">
                        <g id="Group-11" transform="translate(0.317460, 0.000000)"></g>
                        <g id="Group-11" transform="translate(10.158730, 0.000000)"></g>
                    </g>
                    <g id="Group-10" transform="translate(12.698413, 6.349206)"></g>
                </g>
            </g>
        </g>
    </g>
</svg>