<?xml version="1.0" encoding="UTF-8"?>
<svg width="106px" height="36px" viewBox="0 0 106 36" version="1.1" xmlns="http://www.w3.org/2000/svg" xmlns:xlink="http://www.w3.org/1999/xlink">
    <!-- Generator: Sketch 53.2 (72643) - https://sketchapp.com -->
    <title>@2xlogo/tract-horizontal-blue</title>
    <desc>Created with Sketch.</desc>
    <g id="logo/tract-horizontal-blue" stroke="none" stroke-width="1" fill="none" fill-rule="evenodd">
        <g id="body/tract-body-blue" transform="translate(36.000000, 5.000000)" fill="#0C2366">
            <g id="tract-body-white-blue" transform="translate(6.264706, 2.083333)">
                <path d="M9.11862745,18.125 C9.11862745,18.125 9.11862745,18.125 9.11862745,18.125 C8.97941176,17.7777778 8.56176471,17.5694444 8.21372549,17.6388889 C8.21372549,17.6388889 8.14411765,17.6388889 8.14411765,17.6388889 C7.93529412,17.7083333 7.72647059,17.7083333 7.44803922,17.7083333 C6.1254902,17.7083333 5.49901961,16.9444444 5.49901961,15.2777778 L5.49901961,8.19444444 L8.63137255,8.19444444 C9.04901961,8.19444444 9.32745098,7.91666667 9.32745098,7.5 L9.32745098,6.18055556 C9.32745098,5.76388889 9.04901961,5.48611111 8.63137255,5.48611111 L5.49901961,5.48611111 L5.49901961,0.833333333 C5.49901961,0.694444444 5.42941176,0.555555556 5.35980392,0.486111111 C5.15098039,0.138888889 4.73333333,0.0694444444 4.38529412,0.277777778 L3.0627451,1.11111111 C2.64509804,1.38888889 2.43627451,1.80555556 2.43627451,2.29166667 L2.43627451,5.55555556 L0.696078431,5.55555556 C0.278431373,5.55555556 0,5.83333333 0,6.25 L0,7.56944444 C0,7.98611111 0.278431373,8.26388889 0.696078431,8.26388889 L2.50588235,8.26388889 L2.50588235,15.2777778 C2.50588235,18.8888889 4.59411765,20.5555556 7.37843137,20.5555556 C7.86568627,20.5555556 8.28333333,20.4861111 8.77058824,20.4166667 C8.77058824,20.4166667 8.77058824,20.4166667 8.84019608,20.4166667 C9.39705882,20.2777778 9.6754902,19.7222222 9.53627451,19.1666667 L9.11862745,18.125 Z" id="Path" fill-rule="nonzero"></path>
                <path d="M20.6039216,5.41666667 C20.6039216,5.41666667 20.5343137,5.41666667 20.6039216,5.41666667 C20.1862745,5.34722222 19.8382353,5.27777778 19.3509804,5.27777778 C17.75,5.27777778 16.0098039,6.18055556 14.9656863,7.98611111 L14.9656863,6.25 C14.9656863,5.83333333 14.6872549,5.55555556 14.2696078,5.55555556 L12.5990196,5.55555556 C12.1813725,5.55555556 11.9029412,5.83333333 11.9029412,6.25 L11.9029412,19.5833333 C11.9029412,20 12.1813725,20.2777778 12.5990196,20.2777778 L14.2696078,20.2777778 C14.6872549,20.2777778 14.9656863,20 14.9656863,19.5833333 L14.9656863,14.7916667 C14.9656863,10.1388889 16.9843137,7.98611111 18.9333333,7.98611111 C19.2813725,7.98611111 19.6294118,8.05555556 19.9078431,8.125 C19.9078431,8.125 19.9078431,8.125 19.977451,8.125 C19.977451,8.125 20.0470588,8.125 20.0470588,8.125 C20.395098,8.19444444 20.8127451,7.91666667 20.8823529,7.56944444 L21.1607843,6.25 C21.1607843,5.90277778 20.9519608,5.55555556 20.6039216,5.41666667 Z" id="Path" fill-rule="nonzero"></path>
                <path d="M27.7039216,5.27777778 C25.1980392,5.27777778 23.2490196,6.45833333 22.4137255,8.47222222 C22.4137255,8.47222222 22.4137255,8.54166667 22.3441176,8.54166667 C22.3441176,8.61111111 22.3441176,8.61111111 22.3441176,8.68055556 C22.2745098,9.02777778 22.4833333,9.44444444 22.9009804,9.51388889 L24.4323529,9.86111111 C24.7107843,9.93055556 25.0588235,9.79166667 25.1980392,9.51388889 C25.2676471,9.44444444 25.2676471,9.30555556 25.3372549,9.30555556 C25.8941176,8.47222222 26.7990196,8.05555556 27.7735294,8.05555556 C29.304902,8.05555556 30.627451,8.81944444 30.627451,10.625 L30.627451,11.25 L28.0519608,11.25 C24.2235294,11.25 21.6480392,13.0555556 21.6480392,16.0416667 C21.6480392,19.0972222 23.7362745,20.4861111 26.2421569,20.4861111 C28.3303922,20.4861111 29.8617647,19.6527778 30.8362745,18.3333333 L31.045098,19.6527778 C31.1147059,20 31.3931373,20.2083333 31.7411765,20.2083333 L33.0637255,20.2083333 C33.4813725,20.2083333 33.7598039,19.9305556 33.7598039,19.5138889 L33.7598039,11.1111111 C33.6205882,6.80555556 31.1147059,5.27777778 27.7039216,5.27777778 Z M30.5578431,14.0277778 C30.5578431,16.5972222 28.5392157,17.7777778 26.6598039,17.7777778 C25.3372549,17.7777778 24.7803922,17.0138889 24.7803922,15.9722222 C24.7803922,14.5833333 25.9637255,13.6805556 27.8431373,13.6805556 L30.4882353,13.6805556 L30.4882353,14.0277778 L30.5578431,14.0277778 Z" id="Shape" fill-rule="nonzero"></path>
                <path d="M59.0970588,19.0277778 L58.8186275,18.125 C58.8186275,18.125 58.8186275,18.125 58.8186275,18.125 C58.6794118,17.7777778 58.2617647,17.5694444 57.9137255,17.7083333 C57.8441176,17.7083333 57.8441176,17.7083333 57.7745098,17.7777778 C57.5656863,17.8472222 57.3568627,17.8472222 57.1480392,17.8472222 C55.8254902,17.8472222 55.1990196,17.0833333 55.1990196,15.4166667 L55.1990196,8.19444444 L58.3313725,8.19444444 C58.7490196,8.19444444 59.027451,7.91666667 59.027451,7.5 L59.027451,6.18055556 C59.027451,5.76388889 58.7490196,5.48611111 58.3313725,5.48611111 L55.1990196,5.48611111 L55.1990196,0.833333333 C55.1990196,0.694444444 55.1294118,0.555555556 55.0598039,0.486111111 C54.8509804,0.138888889 54.4333333,0.0694444444 54.0852941,0.277777778 L52.7627451,1.11111111 C52.345098,1.38888889 52.1362745,1.80555556 52.1362745,2.29166667 L52.1362745,5.55555556 L50.3264706,5.55555556 C49.9088235,5.55555556 49.6303922,5.83333333 49.6303922,6.25 L49.6303922,7.56944444 C49.6303922,7.98611111 49.9088235,8.26388889 50.3264706,8.26388889 L52.1362745,8.26388889 L52.1362745,15.2777778 C52.1362745,18.8888889 54.2245098,20.5555556 57.0088235,20.5555556 C57.4960784,20.5555556 57.9137255,20.4861111 58.4009804,20.4166667 C58.4009804,20.4166667 58.4705882,20.4166667 58.4705882,20.4166667 C58.9578431,20.1388889 59.3058824,19.5833333 59.0970588,19.0277778 Z" id="Path" fill-rule="nonzero"></path>
                <path d="M48.1686275,16.1111111 L46.7068627,15.4861111 C46.3588235,15.3472222 46.0107843,15.4861111 45.8019608,15.7638889 C45.7323529,15.9027778 45.6627451,15.9722222 45.6627451,16.0416667 C44.9666667,17.1527778 43.8529412,17.7777778 42.4607843,17.7777778 C39.8156863,17.7777778 38.7019608,15.625 38.7019608,12.8472222 C38.7019608,10.0694444 39.8156863,7.91666667 42.4607843,7.91666667 C43.922549,7.91666667 44.9666667,8.54166667 45.7323529,9.65277778 C45.8019608,9.72222222 45.8019608,9.79166667 45.8715686,9.86111111 C46.0107843,10.1388889 46.4284314,10.2777778 46.7764706,10.1388889 L48.2382353,9.51388889 C48.2382353,9.51388889 48.3078431,9.51388889 48.3078431,9.51388889 C48.6558824,9.30555556 48.795098,8.88888889 48.5862745,8.54166667 C48.5166667,8.47222222 48.5166667,8.40277778 48.5166667,8.40277778 C47.2637255,6.31944444 45.3147059,5.20833333 42.5303922,5.20833333 C37.7970588,5.20833333 35.5696078,8.75 35.5696078,12.7777778 C35.5696078,16.8055556 37.8666667,20.3472222 42.5303922,20.3472222 C45.245098,20.3472222 47.1941176,19.3055556 48.4470588,17.2222222 C48.5166667,17.1527778 48.5166667,17.0138889 48.5862745,16.9444444 C48.5862745,16.9444444 48.5862745,16.9444444 48.5862745,16.875 C48.7254902,16.6666667 48.5166667,16.25 48.1686275,16.1111111 Z" id="Path" fill-rule="nonzero"></path>
            </g>
        </g>
        <g id="icon/tract-icon-blue">
            <g id="Group-14" transform="translate(-0.571429, 0.000000)">
                <g id="Group-12">
                    <g id="Group-10" transform="translate(0.285714, 0.000000)" fill="#0C2366" fill-rule="nonzero">
                        <path d="M23.7574233,9.95433645 C23.5687657,10.0690693 23.3621814,10.1572541 23.1428571,10.2137043 L23.1428571,16.07201 C23.4886989,16.1610235 23.8028631,16.328944 24.0650139,16.5554355 L25.9317806,14.6886688 C25.7922855,14.3930954 25.7142857,14.0627995 25.7142857,13.7142857 C25.7142857,13.1480117 25.9202098,12.6298339 26.2612592,12.2305509 L23.7574233,9.95433645 Z M24.5556234,9.13544629 L27.2259095,11.5629791 C27.4676526,11.475981 27.7282897,11.4285714 28,11.4285714 C28.5505361,11.4285714 29.0556123,11.6232085 29.4501703,11.9474242 L31.3961427,8.70601202 C31.7128218,8.17474101 31.6314672,7.50582542 31.1990648,7.07342284 L29.2116293,5.08894587 C28.7785152,4.65375903 28.1083808,4.57112308 27.5809319,4.88883657 L24.4828154,6.74609895 C24.7194656,7.10610694 24.8571429,7.53697535 24.8571429,8 C24.8571429,8.41327272 24.7474629,8.8009283 24.5556234,9.13544629 Z M21.8981411,5.81506234 L20.9845182,2.15496226 C20.8349376,1.55871751 20.3019844,1.14285714 19.6858014,1.14285714 L16.8856271,1.14285714 C16.2694446,1.14285714 15.7364909,1.5587178 15.5870741,2.15430809 L14.6487393,5.91340564 C15.2761389,6.1948097 15.753562,6.75087125 15.92799,7.42857143 L20.3577243,7.42857143 C20.5556341,6.65963788 21.14361,6.04729791 21.8981411,5.81506234 Z M20.3577243,8.57142857 L15.92799,8.57142857 C15.8646906,8.81736403 15.7614884,9.04728037 15.6256965,9.25386459 L17.7481248,11.6174779 L20.7427501,9.37150888 C20.5658076,9.13596171 20.4333145,8.86511709 20.3577243,8.57142857 Z M21.6730113,10.1023844 L18.5146753,12.4711364 L21.8024861,16.132562 C21.8670334,16.1095084 21.9329208,16.089275 22,16.07201 L22,10.2137043 C21.8874127,10.1847263 21.7781826,10.1473858 21.6730113,10.1023844 Z M20.8498069,16.7821668 L17.596823,13.1595256 L15.9527573,14.3925749 C15.9837282,14.542582 16,14.6979622 16,14.8571429 C16,14.9453518 15.9950034,15.0323936 15.9852777,15.1180009 L20.8244283,16.8117036 C20.8328053,16.8017854 20.8412652,16.7919394 20.8498069,16.7821668 Z M20.3274645,17.8486017 L15.5748287,16.1851792 C15.2668827,16.615833 14.8131352,16.9350984 14.2857143,17.0708472 L14.2857143,18.9291528 C14.7225289,19.0415811 15.1088086,19.2798889 15.4035782,19.6031006 L20.2981617,18.0457332 C20.3051108,17.9791304 20.3149201,17.9133782 20.3274645,17.8486017 Z M20.471517,19.1898886 L15.9424569,20.6309531 C15.9801106,20.7955256 16,20.9668687 16,21.1428571 C16,21.4303714 15.9469149,21.7054869 15.8500114,21.9589371 L17.596823,23.2690458 L20.7878935,19.7153536 C20.6602074,19.556265 20.5533673,19.3797287 20.471517,19.1898886 Z M21.7070192,20.4023248 L18.5146753,23.957435 L21.3382751,26.0751349 C21.5394754,25.9459696 21.7622526,25.8474877 22,25.7862957 L22,20.4994186 C21.8994982,20.4735512 21.8016716,20.4410203 21.7070192,20.4023248 Z M20.5574718,26.9181038 L17.7481248,24.8110936 L15.7745504,27.0089377 C15.8796606,27.2270466 15.9511561,27.464403 15.9823161,27.7142857 L20.3033982,27.7142857 C20.338939,27.4292711 20.4269546,27.1605528 20.5574718,26.9181038 Z M20.451862,28.8571429 L15.8338523,28.8571429 C15.6124487,29.4041024 15.1854755,29.8458551 14.6487392,30.0865944 L15.5869104,33.8450377 C15.7364909,34.4412822 16.2694446,34.8571429 16.8856271,34.8571429 L19.6858014,34.8571429 C20.3019844,34.8571429 20.8349376,34.4412825 20.9843545,33.8456919 L21.8981412,30.1849377 C21.2397078,29.9822799 20.7081061,29.4901729 20.451862,28.8571429 Z M24.4840776,29.2519789 L27.5805508,31.1109352 C28.1090244,31.4271869 28.7796577,31.3450932 29.2128941,30.909788 L31.1987633,28.9268784 C31.632336,28.4933058 31.7144576,27.8224446 31.3970647,27.2955293 L29.6696507,24.4181659 C29.2525268,24.8641303 28.6588135,25.1428571 28,25.1428571 C27.7130144,25.1428571 27.4383819,25.0899671 27.1853182,24.9934026 L24.7244134,27.2305888 C24.8103428,27.4710147 24.8571429,27.730042 24.8571429,28 C24.8571429,28.4622009 24.7199551,28.8923598 24.4840776,29.2519789 Z M24.0738998,26.2774382 L26.2365206,24.3114193 C25.9102768,23.9162623 25.7142857,23.4095907 25.7142857,22.8571429 C25.7142857,22.5021932 25.7951929,22.1661405 25.9395714,21.8664206 L24.1791689,19.9104178 C23.8962042,20.1904466 23.5404659,20.3970812 23.1428571,20.4994186 L23.1428571,25.7862957 C23.4926153,25.8763172 23.8099744,26.0470429 24.0738998,26.2774382 Z M24.7814584,18.8712316 L26.6855887,20.9869319 C26.9074404,20.8307243 27.1583353,20.7129925 27.4285714,20.6434386 L27.4285714,15.92799 C27.1503849,15.8563897 26.8926943,15.7337351 26.6660835,15.5706099 L24.7233524,17.513341 C24.8099575,17.754601 24.8571429,18.0146473 24.8571429,18.2857143 C24.8571429,18.4881082 24.8308372,18.6843582 24.7814584,18.8712316 Z M14.7799848,10.0225922 C14.6249238,10.1044626 14.4593097,10.1690239 14.2857143,10.2137043 L14.2857143,12.6434386 C14.738163,12.7598908 15.1363947,13.0113945 15.4348751,13.3524151 L16.8302725,12.3058671 L14.7799848,10.0225922 Z M11.8877283,6.62567204 L8.98946013,4.88821368 C8.46304779,4.57112308 7.79291337,4.65375903 7.35883586,5.08991155 L5.37562559,7.07312182 C4.94191954,7.50682734 4.8593329,8.17595915 5.17436387,8.70447071 L7.03373548,11.8016367 C7.39335453,11.5657592 7.82351345,11.4285714 8.28571429,11.4285714 C8.55742456,11.4285714 8.81806173,11.475981 9.05980478,11.5629791 L11.7300909,9.13544629 C11.5382514,8.8009283 11.4285714,8.41327272 11.4285714,8 C11.4285714,7.4841347 11.5994653,7.0081838 11.8877283,6.62567204 Z M12.528291,9.95433645 L10.0244551,12.2305509 C10.3655045,12.6298339 10.5714286,13.1480117 10.5714286,13.7142857 C10.5714286,13.798867 10.5668345,13.8823752 10.5578821,13.9645745 L11.5022277,14.2793563 C11.7106519,13.4791742 12.3417735,12.8496232 13.1428571,12.6434386 L13.1428571,10.2137043 C12.9235328,10.1572541 12.7169485,10.0690693 12.528291,9.95433645 Z M11.5170168,15.4889632 L10.1521699,15.0340143 C9.84413408,15.4688692 9.38794967,15.7913698 8.85714286,15.92799 L8.85714286,20.6434386 C9.48028421,20.8038241 10.0005838,21.2203828 10.2990841,21.7741572 L11.4421179,21.3931459 C11.4331655,21.3109466 11.4285714,21.2274384 11.4285714,21.1428571 C11.4285714,20.077806 12.157013,19.1828916 13.1428571,18.9291528 L13.1428571,17.0708472 C12.3598934,16.8693262 11.7392899,16.2633749 11.5170168,15.4889632 Z M11.8478301,22.4625857 L10.5712229,22.8881214 C10.5658875,23.2897849 10.4569477,23.6664427 10.2699091,23.9925892 L12.528291,26.0456635 C12.7169485,25.9309307 12.9235328,25.8427459 13.1428571,25.7862957 L13.1428571,23.3565614 C12.6120503,23.2199412 12.1558659,22.8974406 11.8478301,22.4625857 Z M11.7300909,26.8645537 L9.47170903,24.8114793 C9.1259489,25.0217546 8.7199741,25.1428571 8.28571429,25.1428571 C7.71728544,25.1428571 7.19731947,24.9353629 6.79742642,24.5919844 L5.17477911,27.2948365 C4.85866104,27.8230867 4.9402403,28.4944535 5.37236385,28.9265772 L7.35979899,30.9110546 C7.79291324,31.3462411 8.46304785,31.4288769 8.990185,31.1113504 L11.8864287,29.3726017 C11.5989517,28.9903847 11.4285714,28.5150896 11.4285714,28 C11.4285714,27.5867273 11.5382514,27.1990717 11.7300909,26.8645537 Z M15.0282652,26.1294851 L16.8302725,24.1227043 L15.1874402,22.8905801 C14.9294591,23.108255 14.6226173,23.2698486 14.2857143,23.3565614 L14.2857143,25.7862957 C14.5557751,25.8558045 14.8065198,25.9734287 15.0282652,26.1294851 Z M30.2042954,14.3210859 C29.9883133,15.1074497 29.3628049,15.7243038 28.5714286,15.92799 L28.5714286,20.6434386 C29.1787853,20.7997614 29.6884444,21.1994437 29.9902612,21.7323407 L30.2656263,21.6636049 L34.130752,20.6988039 C34.7269968,20.5492234 35.1428571,20.0162701 35.1428571,19.4000872 L35.1428571,16.5999128 C35.1428571,15.9837303 34.7269965,15.4507766 34.1314062,15.3013598 L30.2042954,14.3210859 Z M6.10077661,14.3875731 L2.43885758,15.3016493 C1.84501793,15.4485574 1.42857143,15.9828664 1.42857143,16.5999128 L1.42857143,19.4000872 C1.42857143,20.0162701 1.8444318,20.5492234 2.44012222,20.6986651 L6.33159691,21.670788 C6.63705274,21.1687291 7.13054543,20.7936829 7.71428571,20.6434386 L7.71428571,15.92799 C6.94535215,15.7300802 6.33301217,15.1421043 6.10077661,14.3875731 Z M7.32481697,23.4761046 C7.52828317,23.7913215 7.88262899,24 8.28571429,24 C8.91689686,24 9.42857143,23.4883254 9.42857143,22.8571429 C9.42857143,22.2259603 8.91689686,21.7142857 8.28571429,21.7142857 C7.65453171,21.7142857 7.14285714,22.2259603 7.14285714,22.8571429 C7.14285714,22.9908654 7.16582356,23.1192239 7.20802715,23.238489 C7.22227639,23.2679815 7.23664671,23.297413 7.25113648,23.3267789 L7.32481697,23.4761046 Z M21.5716584,18.8398436 C21.7666843,19.1909617 22.1413081,19.4285714 22.5714286,19.4285714 C23.2026111,19.4285714 23.7142857,18.9168969 23.7142857,18.2857143 C23.7142857,17.6545317 23.2026111,17.1428571 22.5714286,17.1428571 C21.940246,17.1428571 21.4285714,17.6545317 21.4285714,18.2857143 L21.6018307,18.8302433 L21.5716584,18.8398436 Z M8.28571429,14.8571429 C8.91689686,14.8571429 9.42857143,14.3454683 9.42857143,13.7142857 C9.42857143,13.0831031 8.91689686,12.5714286 8.28571429,12.5714286 C7.65453171,12.5714286 7.14285714,13.0831031 7.14285714,13.7142857 C7.14285714,14.3454683 7.65453171,14.8571429 8.28571429,14.8571429 Z M28,14.8571429 C28.6311826,14.8571429 29.1428571,14.3454683 29.1428571,13.7142857 C29.1428571,13.0831031 28.6311826,12.5714286 28,12.5714286 C27.3688174,12.5714286 26.8571429,13.0831031 26.8571429,13.7142857 C26.8571429,14.3454683 27.3688174,14.8571429 28,14.8571429 Z M28,24 C28.6311826,24 29.1428571,23.4883254 29.1428571,22.8571429 C29.1428571,22.2259603 28.6311826,21.7142857 28,21.7142857 C27.3688174,21.7142857 26.8571429,22.2259603 26.8571429,22.8571429 C26.8571429,23.4883254 27.3688174,24 28,24 Z M13.7142857,22.2857143 C14.3454683,22.2857143 14.8571429,21.7740397 14.8571429,21.1428571 C14.8571429,20.5116746 14.3454683,20 13.7142857,20 C13.0831031,20 12.5714286,20.5116746 12.5714286,21.1428571 C12.5714286,21.7740397 13.0831031,22.2857143 13.7142857,22.2857143 Z M13.7142857,29.1428571 C14.3454683,29.1428571 14.8571429,28.6311826 14.8571429,28 C14.8571429,27.3688174 14.3454683,26.8571429 13.7142857,26.8571429 C13.0831031,26.8571429 12.5714286,27.3688174 12.5714286,28 C12.5714286,28.6311826 13.0831031,29.1428571 13.7142857,29.1428571 Z M13.7142857,9.14285714 C14.3454683,9.14285714 14.8571429,8.63118257 14.8571429,8 C14.8571429,7.36881743 14.3454683,6.85714286 13.7142857,6.85714286 C13.0831031,6.85714286 12.5714286,7.36881743 12.5714286,8 C12.5714286,8.63118257 13.0831031,9.14285714 13.7142857,9.14285714 Z M13.7142857,16 C14.3454683,16 14.8571429,15.4883254 14.8571429,14.8571429 C14.8571429,14.2259603 14.3454683,13.7142857 13.7142857,13.7142857 C13.0831031,13.7142857 12.5714286,14.2259603 12.5714286,14.8571429 C12.5714286,15.4883254 13.0831031,16 13.7142857,16 Z M22.5714286,29.1428571 C23.2026111,29.1428571 23.7142857,28.6311826 23.7142857,28 C23.7142857,27.3688174 23.2026111,26.8571429 22.5714286,26.8571429 C21.940246,26.8571429 21.4285714,27.3688174 21.4285714,28 C21.4285714,28.6311826 21.940246,29.1428571 22.5714286,29.1428571 Z M22.5714286,9.14285714 C23.2026111,9.14285714 23.7142857,8.63118257 23.7142857,8 C23.7142857,7.36881743 23.2026111,6.85714286 22.5714286,6.85714286 C21.940246,6.85714286 21.4285714,7.36881743 21.4285714,8 C21.4285714,8.63118257 21.940246,9.14285714 22.5714286,9.14285714 Z M14.4784037,1.87687004 C14.7554941,0.77235671 15.7453218,0 16.8856271,0 L19.6858014,0 C20.8261073,0 21.8159345,0.772356481 22.0931886,1.87752421 L22.9847237,5.44913572 C23.2718553,5.55772665 23.5554858,5.67589539 23.8332577,5.80301267 L26.9922742,3.90924324 C27.9693598,3.32068434 29.2173491,3.47457702 30.0204133,4.28148826 L32.0068854,6.26499954 C32.8105115,7.06862564 32.9616921,8.31166639 32.376907,9.29271522 L30.4806577,12.4513086 C30.6083977,12.7279434 30.7270714,13.0116924 30.8365526,13.300984 L34.4088442,14.1926894 C35.5133576,14.4697798 36.2857143,15.4596075 36.2857143,16.5999128 L36.2857143,19.4000872 C36.2857143,20.5403931 35.5133578,21.5302202 34.4081901,21.8074743 L30.8365528,22.699016 C30.7270717,22.9883072 30.608398,23.2720562 30.4806577,23.5486915 L32.376471,26.7065599 C32.9644459,27.6826759 32.8117403,28.9301455 32.0065839,29.7353016 L30.0216779,31.7172458 C29.2185827,32.5241833 27.9716232,32.6768264 26.9929991,32.0911927 L23.8344058,30.1949434 C23.5577704,30.3226837 23.2740214,30.4413575 22.9847302,30.5508385 L22.0930249,34.12313 C21.8159345,35.2276435 20.8261073,36 19.6858014,36 L16.8856271,36 C15.7453218,36 14.7554941,35.2276433 14.47824,34.1224758 L13.586736,30.5509896 C13.3048335,30.4440397 13.0215573,30.3249445 12.7379722,30.1943734 L9.57915438,32.0907568 C8.60206902,32.6793155 7.3540798,32.5254231 6.55101523,31.7185124 L4.56454322,29.7350005 C3.76092838,28.9313856 3.60946964,27.6849368 4.19452162,26.7072848 L6.0905991,23.5489776 C5.96071665,23.268922 5.84091318,22.9846307 5.73224981,22.6990431 L2.16258433,21.8073106 C1.05807077,21.5302202 0.285714286,20.5403931 0.285714286,19.4000872 L0.285714286,16.5999128 C0.285714286,15.4583751 1.05951754,14.4655705 2.16323849,14.1925257 L5.73439972,13.301103 C5.84305354,13.013368 5.96181249,12.7298328 6.09069796,12.4511871 L4.19359959,9.29117391 C3.61003691,8.31217048 3.76346939,7.06903297 4.5675038,6.26499954 L6.54975045,4.2827552 C7.35407942,3.47457702 8.60206877,3.32068434 9.57811782,3.90862035 L12.7381711,5.80301264 C13.0159423,5.67589568 13.2995729,5.55772697 13.5867049,5.44913583 L14.4784037,1.87687004 Z" id="Combined-Shape"></path>
                    </g>
                    <g id="Group-10" transform="translate(25.714286, 11.428571)"></g>
                    <g id="Group-10" transform="translate(11.428571, 5.714286)">
                        <g id="Group-11" transform="translate(0.285714, 0.000000)"></g>
                        <g id="Group-11" transform="translate(9.142857, 0.000000)"></g>
                    </g>
                    <g id="Group-10" transform="translate(11.428571, 5.714286)"></g>
                </g>
            </g>
        </g>
    </g>
</svg>