<?xml version="1.0" encoding="UTF-8"?>
<svg width="63px" height="63px" viewBox="0 0 63 63" version="1.1" xmlns="http://www.w3.org/2000/svg" xmlns:xlink="http://www.w3.org/1999/xlink">
    <!-- Generator: Sketch 53.2 (72643) - https://sketchapp.com -->
    <title>@2xicon/tract-icon-black</title>
    <desc>Created with Sketch.</desc>
    <g id="icon/tract-icon-black" stroke="none" stroke-width="1" fill="none" fill-rule="evenodd">
        <g id="Group-14" transform="translate(-1.000000, 0.000000)">
            <g id="Group-12">
                <g id="Group-10" transform="translate(0.500000, 0.000000)" fill="#1A1919" fill-rule="nonzero">
                    <path d="M41.5754908,17.4200888 C41.2453401,17.6208712 40.8838175,17.7751947 40.5,17.8739825 L40.5,28.1260175 C41.1052231,28.2817911 41.6550105,28.575652 42.1137743,28.9720121 L45.380616,25.7051704 C45.1364997,25.1879169 45,24.609899 45,24 C45,23.0090205 45.3603671,22.1022092 45.9572035,21.403464 L41.5754908,17.4200888 Z M42.972341,15.987031 L47.6453416,20.2352134 C48.068392,20.0829667 48.524507,20 49,20 C49.9634382,20 50.8473216,20.3406148 51.537798,20.9079924 L54.9432497,15.235521 C55.4974381,14.3057968 55.3550675,13.1351945 54.5983634,12.37849 L51.1203513,8.90565528 C50.3624016,8.1440783 49.1896664,7.99946539 48.2666308,8.555464 L42.844927,11.8056732 C43.2590649,12.4356872 43.5,13.1897069 43.5,14 C43.5,14.7232273 43.3080601,15.4016245 42.972341,15.987031 Z M38.3217469,10.1763591 L36.7229068,3.77118395 C36.4611409,2.72775564 35.5284728,2 34.4501525,2 L29.5498475,2 C28.471528,2 27.538859,2.72775616 27.2773797,3.77003916 L25.6352938,10.3484599 C26.733243,10.840917 27.5687336,11.8140247 27.8739825,13 L35.6260175,13 C35.9723597,11.6543663 37.0013175,10.5827713 38.3217469,10.1763591 Z M35.6260175,15 L27.8739825,15 C27.7632085,15.430387 27.5826048,15.8327406 27.3449689,16.194263 L31.0592183,20.3305863 L36.2998126,16.4001405 C35.9901633,15.987933 35.7583003,15.5139549 35.6260175,15 Z M37.9277698,17.6791726 L32.4006817,21.8244887 L38.1543506,28.2319835 C38.2673084,28.1916398 38.3826115,28.1562312 38.5,28.1260175 L38.5,17.8739825 C38.3029723,17.8232711 38.1118196,17.7579252 37.9277698,17.6791726 Z M36.4871621,29.3687919 L30.7944402,23.0291698 L27.9173253,25.187006 C27.9715244,25.4495185 28,25.7214338 28,26 C28,26.1543656 27.9912559,26.3066889 27.9742359,26.4565016 L36.4427496,29.4204814 C36.4574093,29.4031244 36.472214,29.385894 36.4871621,29.3687919 Z M35.5730628,31.235053 L27.2559502,28.3240636 C26.7170447,29.0777078 25.9229866,29.6364222 25,29.8739825 L25,33.1260175 C25.7644255,33.322767 26.4404151,33.7398056 26.9562618,34.3054261 L35.5217829,31.580033 C35.5339439,31.4634782 35.5511102,31.3484119 35.5730628,31.235053 Z M35.8251547,33.582305 L27.8992996,36.104168 C27.9651935,36.3921698 28,36.6920201 28,37 C28,37.5031499 27.9071011,37.9846021 27.73752,38.42814 L30.7944402,40.7208302 L36.3788136,34.5018689 C36.155363,34.2234638 35.9683927,33.9145252 35.8251547,33.582305 Z M37.9872835,35.7040684 L32.4006817,41.9255113 L37.3419813,45.631486 C37.694082,45.4054468 38.0839421,45.2331034 38.5,45.1260175 L38.5,35.8739825 C38.3241219,35.8287146 38.1529253,35.7717855 37.9872835,35.7040684 Z M35.9755756,47.1066817 L31.0592183,43.4194137 L27.6054633,47.265641 C27.789406,47.6473315 27.9145232,48.0627052 27.9690531,48.5 L35.5309469,48.5 C35.5931433,48.0012245 35.7471705,47.5309674 35.9755756,47.1066817 Z M35.7907585,50.5 L27.7092415,50.5 C27.3217852,51.4571792 26.574582,52.2302465 25.6352935,52.6515403 L27.2770932,59.228816 C27.538859,60.2722438 28.471528,61 29.5498475,61 L34.4501525,61 C35.5284728,61 36.4611409,60.2722444 36.7226203,59.2299608 L38.3217472,52.823641 C37.1694887,52.4689898 36.2391856,51.6078026 35.7907585,50.5 Z M42.8471358,51.190963 L48.2659639,54.4441366 C49.1907927,54.9975772 50.364401,54.8539131 51.1225647,54.092129 L54.5978358,50.6220372 C55.3565879,49.8632851 55.5003007,48.6892781 54.9448632,47.7671762 L51.9218888,42.7317903 C51.1919219,43.5122281 50.1529236,44 49,44 C48.4977752,44 48.0171683,43.9074424 47.5743069,43.7384545 L43.2677234,47.6535304 C43.4180999,48.0742757 43.5,48.5275734 43.5,49 C43.5,49.8088515 43.2599214,50.5616296 42.8471358,51.190963 Z M42.1293246,45.9855169 L45.913911,42.5449838 C45.3429844,41.853459 45,40.9667836 45,40 C45,39.3788381 45.1415876,38.7907458 45.39425,38.266236 L42.3135457,34.8432312 C41.8183573,35.3332815 41.1958153,35.694892 40.5,35.8739825 L40.5,45.1260175 C41.1120767,45.2835551 41.6674551,45.5823252 42.1293246,45.9855169 Z M43.3675522,33.0246554 L46.6997802,36.7271309 C47.0880207,36.4537676 47.5270868,36.2477369 48,36.1260175 L48,27.8739825 C47.5131736,27.7486821 47.0622151,27.5340365 46.6656462,27.2485674 L43.2658667,30.6483468 C43.4174256,31.0705517 43.5,31.5256327 43.5,32 C43.5,32.3541894 43.4539651,32.6976268 43.3675522,33.0246554 Z M25.8649734,17.5395364 C25.5936167,17.6828096 25.303792,17.7957919 25,17.8739825 L25,22.1260175 C25.7917852,22.3298089 26.4886907,22.7699403 27.0110314,23.3667265 L29.4529768,21.5352674 L25.8649734,17.5395364 Z M20.8035245,11.5949261 L15.7315552,8.55437395 C14.8103336,7.99946539 13.6375984,8.1440783 12.8779628,8.90734522 L9.40734478,12.3779632 C8.6483592,13.1369479 8.50383257,14.3079285 9.05513678,15.2328238 L12.3090371,20.6528642 C12.9383704,20.2400785 13.6911485,20 14.5,20 C14.975493,20 15.431608,20.0829667 15.8546584,20.2352134 L20.527659,15.987031 C20.1919399,15.4016245 20,14.7232273 20,14 C20,13.0972357 20.2990643,12.2643216 20.8035245,11.5949261 Z M21.9245092,17.4200888 L17.5427965,21.403464 C18.1396329,22.1022092 18.5,23.0090205 18.5,24 C18.5,24.1480172 18.4919603,24.2941566 18.4762938,24.4380054 L20.1288984,24.9888736 C20.4936409,23.5885549 21.5981036,22.4868407 23,22.1260175 L23,17.8739825 C22.6161825,17.7751947 22.2546599,17.6208712 21.9245092,17.4200888 Z M20.1547793,27.1056857 L17.7662974,26.309525 C17.2272346,27.070521 16.4289119,27.6348971 15.5,27.8739825 L15.5,36.1260175 C16.5904974,36.4066921 17.5010217,37.1356698 18.0233973,38.104775 L20.0237062,37.4380054 C20.0080397,37.2941566 20,37.1480172 20,37 C20,35.1361606 21.2747728,33.5700603 23,33.1260175 L23,29.8739825 C21.6298135,29.5213209 20.5437574,28.460906 20.1547793,27.1056857 Z M20.7337026,39.309525 L18.4996401,40.0542125 C18.4903031,40.7571236 18.2996585,41.4162747 17.972341,41.987031 L21.9245092,45.5799112 C22.2546599,45.3791288 22.6161825,45.2248053 23,45.1260175 L23,40.8739825 C22.0710881,40.6348971 21.2727654,40.070521 20.7337026,39.309525 Z M20.527659,47.012969 L16.5754908,43.4200888 C15.9704106,43.7880706 15.2599547,44 14.5,44 C13.5052495,44 12.5953091,43.6368851 11.8954962,43.0359728 L9.05586344,47.7659639 C8.50265683,48.6904017 8.64542052,49.8652936 9.40163673,50.6215102 L12.8796482,54.0943456 C13.6375982,54.8559219 14.8103337,55.0005346 15.7328238,54.4448632 L20.8012502,51.402053 C20.2981655,50.7331732 20,49.9014068 20,49 C20,48.2767727 20.1919399,47.5983755 20.527659,47.012969 Z M26.2994641,45.726599 L29.4529768,42.2147326 L26.5780203,40.0585153 C26.1265534,40.4394462 25.5895802,40.7222351 25,40.8739825 L25,45.1260175 C25.4726064,45.247658 25.9114096,45.4535003 26.2994641,45.726599 Z M52.8575169,25.0619003 C52.4795482,26.4380369 51.3849085,27.5175317 50,27.8739825 L50,36.1260175 C51.0628743,36.3995824 51.9547777,37.0990264 52.482957,38.0315962 L52.964846,37.9113085 L59.728816,36.2229068 C60.7722444,35.9611409 61.5,35.0284728 61.5,33.9501525 L61.5,29.0498475 C61.5,27.971528 60.7722438,27.038859 59.7299608,26.7773797 L52.8575169,25.0619003 Z M10.6763591,25.178253 L4.26800076,26.7778862 C3.22878137,27.0349755 2.5,27.9700161 2.5,29.0498475 L2.5,33.9501525 C2.5,35.0284728 3.22775564,35.9611409 4.27021388,36.222664 L11.0802946,37.9238789 C11.6148423,37.045276 12.4784545,36.3889451 13.5,36.1260175 L13.5,27.8739825 C12.1543663,27.5276403 11.0827713,26.4986825 10.6763591,25.178253 Z M12.8184297,41.083183 C13.1744955,41.6348126 13.7946007,42 14.5,42 C15.6045695,42 16.5,41.1045695 16.5,40 C16.5,38.8954305 15.6045695,38 14.5,38 C13.3954305,38 12.5,38.8954305 12.5,40 C12.5,40.2340145 12.5401912,40.4586418 12.6140475,40.6673558 C12.6389837,40.7189677 12.6641317,40.7704727 12.6894888,40.8218631 L12.8184297,41.083183 Z M37.7504022,32.9697262 C38.0916975,33.584183 38.7472891,34 39.5,34 C40.6045695,34 41.5,33.1045695 41.5,32 C41.5,30.8954305 40.6045695,30 39.5,30 C38.3954305,30 37.5,30.8954305 37.5,32 L37.8032037,32.9529258 L37.7504022,32.9697262 Z M14.5,26 C15.6045695,26 16.5,25.1045695 16.5,24 C16.5,22.8954305 15.6045695,22 14.5,22 C13.3954305,22 12.5,22.8954305 12.5,24 C12.5,25.1045695 13.3954305,26 14.5,26 Z M49,26 C50.1045695,26 51,25.1045695 51,24 C51,22.8954305 50.1045695,22 49,22 C47.8954305,22 47,22.8954305 47,24 C47,25.1045695 47.8954305,26 49,26 Z M49,42 C50.1045695,42 51,41.1045695 51,40 C51,38.8954305 50.1045695,38 49,38 C47.8954305,38 47,38.8954305 47,40 C47,41.1045695 47.8954305,42 49,42 Z M24,39 C25.1045695,39 26,38.1045695 26,37 C26,35.8954305 25.1045695,35 24,35 C22.8954305,35 22,35.8954305 22,37 C22,38.1045695 22.8954305,39 24,39 Z M24,51 C25.1045695,51 26,50.1045695 26,49 C26,47.8954305 25.1045695,47 24,47 C22.8954305,47 22,47.8954305 22,49 C22,50.1045695 22.8954305,51 24,51 Z M24,16 C25.1045695,16 26,15.1045695 26,14 C26,12.8954305 25.1045695,12 24,12 C22.8954305,12 22,12.8954305 22,14 C22,15.1045695 22.8954305,16 24,16 Z M24,28 C25.1045695,28 26,27.1045695 26,26 C26,24.8954305 25.1045695,24 24,24 C22.8954305,24 22,24.8954305 22,26 C22,27.1045695 22.8954305,28 24,28 Z M39.5,51 C40.6045695,51 41.5,50.1045695 41.5,49 C41.5,47.8954305 40.6045695,47 39.5,47 C38.3954305,47 37.5,47.8954305 37.5,49 C37.5,50.1045695 38.3954305,51 39.5,51 Z M39.5,16 C40.6045695,16 41.5,15.1045695 41.5,14 C41.5,12.8954305 40.6045695,12 39.5,12 C38.3954305,12 37.5,12.8954305 37.5,14 C37.5,15.1045695 38.3954305,16 39.5,16 Z M25.3372064,3.28452257 C25.8221146,1.35162424 27.5543131,0 29.5498475,0 L34.4501525,0 C36.4456878,0 38.1778853,1.35162384 38.6630801,3.28566736 L40.2232664,9.53598751 C40.7257468,9.72602164 41.2221002,9.93281694 41.7082009,10.1552722 L47.2364798,6.84117566 C48.9463796,5.81119759 51.130361,6.08050978 52.5357232,7.49260445 L56.0120494,10.9637492 C57.418395,12.3700949 57.6829612,14.5454162 56.6595872,16.2622516 L53.3411509,21.78979 C53.564696,22.2739009 53.7723749,22.7704617 53.9639671,23.276722 L60.2154774,24.8372064 C62.1483758,25.3221146 63.5,27.0543131 63.5,29.0498475 L63.5,33.9501525 C63.5,35.9456878 62.1483762,37.6778853 60.2143327,38.16308 L53.9639673,39.723278 C53.7723755,40.2295375 53.5646965,40.7260983 53.3411509,41.2102102 L56.6588243,46.7364798 C57.6877803,48.4446828 57.4205456,50.6277546 56.0115219,52.0367779 L52.5379363,55.5051802 C51.1325197,56.9173208 48.9503406,57.1844462 47.2377484,56.1595872 L41.7102101,52.8411509 C41.2260982,53.0646965 40.7295375,53.2723755 40.2232779,53.4639673 L38.6627936,59.7154774 C38.1778853,61.6483762 36.4456878,63 34.4501525,63 L29.5498475,63 C27.5543131,63 25.8221146,61.6483758 25.33692,59.7143327 L23.7767881,53.4642319 C23.2834586,53.2770694 22.7877253,53.0686528 22.2914514,52.8401534 L16.7635202,56.1588243 C15.0536208,57.1888021 12.8696397,56.9194905 11.4642767,55.5073967 L7.98795063,52.0362508 C6.58162467,50.6299248 6.31657188,48.4486394 7.34041283,46.7377484 L10.6585484,41.2107108 C10.4312541,40.7206136 10.2215981,40.2231038 10.0314372,39.7233254 L3.78452257,38.1627936 C1.85162384,37.6778853 0.5,35.9456878 0.5,33.9501525 L0.5,29.0498475 C0.5,27.0521564 1.85415569,25.3147484 3.78566736,24.8369199 L10.0351995,23.2769303 C10.2253437,22.7733939 10.4331719,22.2772073 10.6587214,21.7895773 L7.33879928,16.2595543 C6.31756459,14.5462983 6.58607143,12.3708077 7.99313165,10.9637492 L11.4620633,7.49482159 C12.869639,6.08050978 15.0536204,5.81119759 16.7617062,6.84008561 L22.2917993,10.1552721 C22.7778991,9.93281744 23.2742525,9.7260222 23.7767336,9.5359877 L25.3372064,3.28452257 Z" id="Combined-Shape"></path>
                </g>
                <g id="Group-10" transform="translate(45.000000, 20.000000)"></g>
                <g id="Group-10" transform="translate(20.000000, 10.000000)">
                    <g id="Group-11" transform="translate(0.500000, 0.000000)"></g>
                    <g id="Group-11" transform="translate(16.000000, 0.000000)"></g>
                </g>
                <g id="Group-10" transform="translate(20.000000, 10.000000)"></g>
            </g>
        </g>
    </g>
</svg>